<svg viewBox="0 0 45 44" xmlns="http://www.w3.org/2000/svg" xmlns:xlink="http://www.w3.org/1999/xlink"><style>:root>svg{display:none}:root>svg:target{display:block}</style><svg viewBox="0 0 32 32" id="account"><path fill-rule="evenodd" d="M8 18.73c0-.68.55-1.23 1.23-1.23h13.54c.68 0 1.23.55 1.23 1.23v7.77h-2v-7H10v7H8v-7.77Zm8-5.23a3 3 0 1 0 0-6 3 3 0 0 0 0 6Zm0 2a5 5 0 1 0 0-10 5 5 0 0 0 0 10Z" clip-rule="evenodd"/></svg><svg viewBox="0 0 32 32" id="address"><path fill-rule="evenodd" d="M22 6H11a1 1 0 0 0-1 1v18a1 1 0 0 0 1 1h11a1 1 0 0 0 1-1V7a1 1 0 0 0-1-1ZM11 4a3 3 0 0 0-3 3v18a3 3 0 0 0 3 3h11a3 3 0 0 0 3-3V7a3 3 0 0 0-3-3H11Z" clip-rule="evenodd"/><path fill-rule="evenodd" d="M12 9a1 1 0 0 1-1 1H7a1 1 0 0 1 0-2h4a1 1 0 0 1 1 1Zm0 7a1 1 0 0 1-1 1H7a1 1 0 1 1 0-2h4a1 1 0 0 1 1 1Zm0 7a1 1 0 0 1-1 1H7a1 1 0 1 1 0-2h4a1 1 0 0 1 1 1Z" clip-rule="evenodd"/></svg><svg viewBox="0 0 24 24" fill="none" id="ai"><path d="M13.313 11.687c.948.947 2.15 1.593 3.768 2.181-1.617.588-2.82 1.234-3.768 2.181-.947.948-1.593 2.15-2.181 3.768-.588-1.617-1.234-2.82-2.181-3.768-.948-.947-2.15-1.593-3.768-2.181 1.617-.588 2.82-1.234 3.768-2.181.947-.948 1.593-2.15 2.181-3.768.588 1.617 1.234 2.82 2.181 3.768Z" stroke="#000" stroke-width="1.25"/><path d="M17.434 10.027c-.257-.607-.553-1.097-.958-1.502-.405-.405-.895-.702-1.502-.958.606-.257 1.096-.554 1.5-.959.406-.405.703-.894.96-1.502.256.607.553 1.097.958 1.502.405.405.895.702 1.502.958-.607.257-1.097.554-1.502.958-.405.405-.701.895-.958 1.503Z" stroke="#000"/></svg><svg viewBox="0 0 32 32" id="arrow"><path d="M19.3 22.7a1 1 0 0 1 0-1.4l5.29-5.3-5.3-5.3a1 1 0 0 1 1.42-1.4l5.93 5.92a1.1 1.1 0 0 1 0 1.56L20.7 22.7a1 1 0 0 1-1.42 0Z"/><path d="M6 15h19v2H6a1 1 0 1 1 0-2Z"/></svg><svg viewBox="0 0 32 32" id="bag"><path d="M12 26a2 2 0 1 1-4 0 2 2 0 0 1 4 0Zm12 0a2 2 0 1 1-4 0 2 2 0 0 1 4 0Z"/><path fill-rule="evenodd" d="M9 7h16.67c.86 0 1.45.86 1.15 1.66L23.69 17H10.5v-2h11.8l2.26-6H9V7Z" clip-rule="evenodd"/><path fill-rule="evenodd" d="M4 5h5.32l2.22 11.1L9.98 20H25v2H8.84c-.86 0-1.47-.87-1.14-1.69l1.76-4.4L7.68 7H4V5Z" clip-rule="evenodd"/></svg><svg viewBox="0 0 32 32" id="briefcase"><path fill-rule="evenodd" d="M25 12H7a1 1 0 0 0-1 1v10a1 1 0 0 0 1 1h18a1 1 0 0 0 1-1V13a1 1 0 0 0-1-1ZM7 10a3 3 0 0 0-3 3v10a3 3 0 0 0 3 3h18a3 3 0 0 0 3-3V13a3 3 0 0 0-3-3H7Z" clip-rule="evenodd"/><path fill-rule="evenodd" d="M12 11a1 1 0 0 1-1-1V7a1 1 0 1 1 2 0v3a1 1 0 0 1-1 1Zm8 0a1 1 0 0 1-1-1V7a1 1 0 1 1 2 0v3a1 1 0 0 1-1 1Z" clip-rule="evenodd"/><path fill-rule="evenodd" d="M11 7a1 1 0 0 1 1-1h8a1 1 0 1 1 0 2h-8a1 1 0 0 1-1-1Z" clip-rule="evenodd"/></svg><svg viewBox="0 0 22 24" id="calendar"><path d="M18.3 2.516H3.7A3.092 3.092 0 0 0 .598 5.599v16.02c0 1.503.896 2.344 2.422 2.272h16c1.565.072 2.382-.843 2.382-2.272V5.599A3.093 3.093 0 0 0 18.3 2.516ZM3.7 3.983h14.6c.898 0 1.626.724 1.626 1.616v16.02c0 .377-.406.772-.906.772h-16c-.5 0-.946-.395-.946-.772V5.599a1.62 1.62 0 0 1 1.625-1.616Z"/><path d="M20.28 6.89a.74.74 0 0 1 .133 1.469l-.134.012H1.76a.74.74 0 0 1-.132-1.468l.133-.012h18.52Zm-3.748-3.085c0-.016-.344-.088-.752-.088a.74.74 0 0 1-.728-.607V.845A.74.74 0 0 1 16.52.712l.012.133v2.96Zm-9.602 0c0 .41-.333-.507-.742-.507-.363 0-.543.62-.606.274l-.131.233V.845A.74.74 0 0 1 6.919.712l.012.133v2.96Z"/></svg><svg viewBox="0 0 32 32" id="card"><path d="M28.95 12.34v2.3H3.6v-2.3z"/><path d="M27.12 7H4.82A2.63 2.63 0 0 0 2.2 9.63v12.8a2.63 2.63 0 0 0 2.63 2.62h22.29a2.63 2.63 0 0 0 2.63-2.63V9.62A2.63 2.63 0 0 0 27.12 7zM4.82 8.6h22.3c.57 0 1.03.46 1.03 1.03v12.8c0 .56-.46 1.02-1.03 1.02H4.82c-.56 0-1.02-.46-1.02-1.03V9.62c0-.56.46-1.02 1.03-1.02z"/><path d="M25.86 19.79a.8.8 0 0 1 .1 1.6H18.6a.8.8 0 0 1-.1-1.6h7.35z"/><path d="M25.86 19.79a.8.8 0 0 1 .1 1.6H18.6a.8.8 0 0 1-.1-1.6h7.35z"/></svg><svg viewBox="0 0 32 32" id="chapters"><path d="M27.14 9a.86.86 0 0 1 .1 1.7l-.1.01H10.86a.86.86 0 0 1-.1-1.7l.1-.01h16.28zM6.57 9a.86.86 0 0 1 .1 1.7l-.1.01H4.86a.86.86 0 0 1-.1-1.7l.1-.01h1.71zm9 6.09h11.57a.86.86 0 0 1 .1 1.7l-.1.01H15.57a.86.86 0 0 1-.1-1.7l.1-.01zm-4.29 0a.86.86 0 0 1 .1 1.7h-.1l-6.42.01a.86.86 0 0 1-.1-1.7l.1-.01h6.43zm15.86 6.08a.86.86 0 0 1 .1 1.71H15.57a.86.86 0 0 1-.1-1.7h11.67zm-15.85 0a.86.86 0 0 1 .1 1.71H4.86a.86.86 0 0 1-.1-1.7h6.53z"/></svg><svg viewBox="0 0 32 32" id="chat"><path d="M5.21 15.98a11 11 0 1 1 5.56 9.8l-4.35 1.14a1.1 1.1 0 0 1-1.34-1.35l1.24-4.54a10.96 10.96 0 0 1-1.1-5.05Zm11.2-8.77a9 9 0 0 0-8.14 13.24l.19.35-1.04 3.79 3.67-.97.36.23A9 9 0 1 0 16.4 7.21ZM5.9 24.98Z"/></svg><svg viewBox="0 0 32 32" id="chat-alt"><path d="M3.21 13.98a11 11 0 1 1 5.56 9.8l-4.35 1.14a1.1 1.1 0 0 1-1.34-1.35l1.24-4.54a10.96 10.96 0 0 1-1.1-5.05Zm11.2-8.77a9 9 0 0 0-8.14 13.24l.19.35-1.04 3.79 3.67-.97.36.23A9 9 0 1 0 14.4 5.21ZM3.9 22.98Z"/><path d="M16.7 23.75a9.53 9.53 0 0 1-2.3.25 8.42 8.42 0 0 0 11.25 2.96l3.09.8a1.1 1.1 0 0 0 1.34-1.35l-.88-3.23a8.43 8.43 0 0 0-5.73-11.81c.25.71.42 1.46.49 2.24a6.43 6.43 0 0 1 3.29 9l-.19.34.68 2.49-2.4-.63-.36.22a6.39 6.39 0 0 1-8.29-1.28Z"/></svg><svg viewBox="0 0 32 32" id="check"><path d="M27.2 8.28a1 1 0 0 1 .02 1.41L13.8 23.61a1.1 1.1 0 0 1-1.63-.05l-5.43-6.41a1 1 0 1 1 1.52-1.3l4.79 5.66L25.78 8.3a1 1 0 0 1 1.41-.03Z"/></svg><svg viewBox="0 0 32 32" id="chevron"><path d="M9.91 24.96 19.37 16 9.9 7.04l1.5-1.58L22.54 16 11.41 26.54l-1.5-1.58Z"/></svg><svg viewBox="0 0 32 32" id="clear"><path fill-rule="evenodd" d="m20.87 12.23-8.64 8.64-1.42-1.41 8.65-8.65 1.41 1.42Z" clip-rule="evenodd"/><path fill-rule="evenodd" d="m19.77 20.87-8.64-8.64 1.41-1.42 8.65 8.65-1.42 1.41Z" clip-rule="evenodd"/><path fill-rule="evenodd" d="M16 25a9 9 0 1 0 0-18 9 9 0 0 0 0 18Zm0 2a11 11 0 1 0 0-22 11 11 0 0 0 0 22Z" clip-rule="evenodd"/></svg><svg viewBox="0 0 32 32" id="clear-filled"><path fill-rule="evenodd" d="M23.78 23.78A11 11 0 1 0 8.22 8.22a11 11 0 0 0 15.56 15.56ZM16 14.77l-3.46-3.46-1.41 1.42 3.46 3.46-3.78 3.77 1.42 1.41L16 17.6l3.77 3.77 1.42-1.41-3.78-3.77 3.46-3.46-1.41-1.42L16 14.77Z" clip-rule="evenodd"/></svg><svg viewBox="0 0 32 32" id="close"><path d="m25.54 8-8 8 8 8L24 25.54l-8-8-8 8L6.46 24l8-8-8-8L8 6.46l8 8 8-8L25.54 8Z"/></svg><svg fill="none" viewBox="0 0 24 24" id="collection-point"><path fill="#000" fill-rule="evenodd" d="M15.136 4.693a2.995 2.995 0 0 1 3.822-.009c.532.44.887 1.05 1.002 1.72a2.82 2.82 0 0 1-.374 1.945l-2.281 3.722a.247.247 0 0 1-.418.003l-2.342-3.682a2.822 2.822 0 0 1-.405-1.956 2.862 2.862 0 0 1 .996-1.743Zm1.956 6.793 2.075-3.38v-.001c.299-.49.41-1.068.312-1.63a2.387 2.387 0 0 0-.845-1.438 2.497 2.497 0 0 0-1.599-.56 2.495 2.495 0 0 0-1.59.585 2.384 2.384 0 0 0-.821 1.45c-.088.564.032 1.14.339 1.625l2.129 3.35Z" clip-rule="evenodd"/><path fill="#000" fill-rule="evenodd" d="M16.126 6.02a1.31 1.31 0 1 1 1.853 1.853 1.31 1.31 0 0 1-1.853-1.852Zm.306 1.548a.877.877 0 1 0 1.236-1.243.877.877 0 0 0-1.236 1.243Z" clip-rule="evenodd"/><path stroke="#000" stroke-linecap="round" d="M12.982 7.79H5a1 1 0 0 0-1 1v10.789h16V9.895"/><path stroke="#000" d="M9.053 19.158v-5.053h5.894v5.053m-2.868-5.053v5.053"/></svg><svg viewBox="0 0 32 32" id="credit-card"><path fill-rule="evenodd" d="M25 10H7a1 1 0 0 0-1 1v10a1 1 0 0 0 1 1h18a1 1 0 0 0 1-1V11a1 1 0 0 0-1-1ZM7 8a3 3 0 0 0-3 3v10a3 3 0 0 0 3 3h18a3 3 0 0 0 3-3V11a3 3 0 0 0-3-3H7Z" clip-rule="evenodd"/><path fill-rule="evenodd" d="M28 14H6v-2h22v2Z" clip-rule="evenodd"/></svg><svg viewBox="0 0 32 32" id="curbside"><path fill-rule="evenodd" d="M2 11a1 1 0 0 1 1-1h1.44c.64 0 1.25.26 1.7.71l1.57 1.59a1 1 0 0 1-1.42 1.4l-1.57-1.58a.4.4 0 0 0-.28-.12H3a1 1 0 0 1-1-1Z" clip-rule="evenodd"/><path d="M11 22.5a2.5 2.5 0 1 1-5 0 2.5 2.5 0 0 1 5 0Zm15 0a2.5 2.5 0 1 1-5 0 2.5 2.5 0 0 1 5 0Z"/><path fill-rule="evenodd" d="M8.56 10.41A3 3 0 0 1 11.11 9h7.47a3 3 0 0 1 2.28 1.05l2 2.33a1 1 0 0 0 .5.32l4.04 1.1a3 3 0 0 1 1.9 1.55l.32.66a3 3 0 0 1 .3 1.71l-.31 2.5a3 3 0 0 1-1.32 2.12l-.23.16a3 3 0 0 1-1.67.5H5.11a3 3 0 0 1-1.67-.5l-.1-.07A3 3 0 0 1 2 19.93V17.3a3 3 0 0 1 1.78-2.74l2.75-1.23a1 1 0 0 0 .45-.38l1.58-2.54Zm2.55.59a1 1 0 0 0-.85.47l-1.59 2.54a3 3 0 0 1-1.32 1.15L4.59 16.4a1 1 0 0 0-.59.91v2.63a1 1 0 0 0 .45.83l.1.07a1 1 0 0 0 .56.17h21.28a1 1 0 0 0 .56-.17l.23-.15a1 1 0 0 0 .44-.71l.31-2.5a1 1 0 0 0-.1-.56l-.32-.66a1 1 0 0 0-.64-.52l-4.04-1.1a3 3 0 0 1-1.49-.95l-2-2.33a1 1 0 0 0-.76-.35h-7.47Z" clip-rule="evenodd"/></svg><svg viewBox="0 0 32 32" id="customs"><path d="M7 6a1 1 0 0 0-1 1v18a1 1 0 0 0 1 1h18a1 1 0 0 0 1-1V7a1 1 0 0 0-1-1Zm9 2h8v8h-7.893a.108.108 0 0 0-.107.107V24H8v-8h7.893a.106.106 0 0 0 .107-.105Z"/></svg><svg viewBox="0 0 32 32" id="dots"><path d="M14 6h4v4h-4V6Zm0 8h4v4h-4v-4Zm0 8h4v4h-4v-4Z"/></svg><svg viewBox="0 0 32 32" fill="none" id="download"><path stroke="currentColor" stroke-width="2" d="M26.751 17.05v9.6h-22v-9.6"/><path fill="currentColor" fill-rule="evenodd" d="m15.062 19.839-4.665-4.665-1.046 1.046 6.502 6.577 6.502-6.577-1.047-1.046-4.378 4.378V5.05h-1.868v14.789Z" clip-rule="evenodd"/></svg><svg viewBox="0 0 32 32" id="earn"><path fill-rule="evenodd" d="M6.658 4.445a.21.21 0 0 0-.21.21V21.73a.21.21 0 0 0 .102.18l9.342 5.616c.066.04.15.04.216 0l9.342-5.616a.21.21 0 0 0 .102-.18V4.655a.21.21 0 0 0-.21-.21H6.658ZM5 4.655C5 3.741 5.742 3 6.658 3h18.684C26.258 3 27 3.741 27 4.655V21.73c0 .58-.305 1.118-.803 1.418l-9.341 5.616a1.66 1.66 0 0 1-1.712 0l-9.341-5.616A1.654 1.654 0 0 1 5 21.729V4.655Z" clip-rule="evenodd"/><path d="M16.614 14.55c1.434.568 2.992 1.183 2.992 3.299 0 1.72-1.278 3.046-3.615 3-.265 0-.53-.032-.78-.096l-.264 1.184-.748-.173.28-1.263c-1.028-.505-1.839-1.563-1.979-3.41h1.48c.094.916.406 1.563.826 1.957l.795-3.488c-1.402-.6-2.883-1.295-2.883-3.363 0-1.799 1.387-2.951 3.273-2.951.358 0 .685.047.997.126l.25-1.12.747.173-.28 1.247c.935.537 1.527 1.531 1.683 2.841h-1.48c-.079-.584-.266-1.042-.53-1.357l-.764 3.394Zm-2.369-2.32c0 1.072.733 1.593 1.652 2.02l.795-3.584a2.071 2.071 0 0 0-.717-.126c-1.2 0-1.73.742-1.73 1.69Zm1.902 7.324c1.34 0 1.932-.68 1.932-1.737 0-1.042-.795-1.531-1.761-1.957l-.81 3.599c.202.063.405.095.639.095Z"/></svg><svg viewBox="0 0 32 32" id="edit"><path fill-rule="evenodd" d="M23.97 5.15a.5.5 0 0 0-.7-.02l-1.15 1.05-7.35 7.35a.5.5 0 0 0-.14.27l-.61 3.45-.02.18a.5.5 0 0 0 .58.54l.14-.02 3.45-.61a.5.5 0 0 0 .27-.14l7.35-7.35 1.12-1.04a.5.5 0 0 0 0-.72l-2.94-2.94Zm-8.32 9.38a.5.5 0 0 1 .15-.28l5.47-5.47c.2-.2.51-.2.7 0L23.2 10c.2.2.2.5 0 .7l-5.47 5.48a.5.5 0 0 1-.28.14l-1.42.2a.5.5 0 0 1-.57-.57l.2-1.42Z" clip-rule="evenodd"/><path fill-rule="evenodd" d="M8 7a1 1 0 0 0-1 1v16a1 1 0 0 0 1 1h16a1 1 0 0 0 1-1V13.27a1 1 0 1 1 2 0V24a3 3 0 0 1-3 3H8a3 3 0 0 1-3-3V8a3 3 0 0 1 3-3h10.73a1 1 0 1 1 0 2H8Z" clip-rule="evenodd"/></svg><svg viewBox="0 0 32 32" id="error"><path d="M15.887 27.574c6.455 0 11.687-5.232 11.687-11.687 0-6.455-5.232-11.687-11.687-11.687C9.433 4.2 4.2 9.433 4.2 15.887c0 6.455 5.233 11.687 11.687 11.687zm0-1.718c-5.505 0-9.968-4.464-9.968-9.969 0-5.505 4.463-9.968 9.968-9.968 5.506 0 9.969 4.463 9.969 9.968 0 5.506-4.463 9.969-9.969 9.969z"/><path d="M15.887 17.935a.86.86 0 0 1-.848-.72l-.011-.14v-6.022a.86.86 0 0 1 1.707-.14l.012.14v6.023a.86.86 0 0 1-.86.86zm-.984 2.842a1 1 0 1 1 2 0 1 1 0 0 1-2 0"/></svg><svg viewBox="0 0 32 32" id="expand"><path d="M26.02 4.61a.83.83 0 0 1 1.25 1.09l-.07.09-6.93 6.93a.83.83 0 0 1-1.25-1.1l.07-.08 6.93-6.93z"/><path d="M26.98 4a.83.83 0 0 1 .82.73l.01.1v6.53a.83.83 0 0 1-1.65.1l-.01-.1v-5.7h-5.7a.83.83 0 0 1-.82-.72l-.01-.1a.83.83 0 0 1 .72-.83l.11-.01h6.53zm-22.17.61a.83.83 0 0 1 1.09-.07l.09.07 6.93 6.93a.83.83 0 0 1-1.1 1.25l-.08-.07-6.93-6.94a.83.83 0 0 1 0-1.17z"/><path d="M11.56 4a.83.83 0 0 1 .1 1.66h-5.8v5.7a.83.83 0 0 1-.73.83h-.1a.83.83 0 0 1-.82-.72l-.01-.1V4.82A.83.83 0 0 1 4.93 4l.1-.01h6.53zm.18 15.2A.83.83 0 0 1 13 20.29l-.07.09L6 27.31a.83.83 0 0 1-1.25-1.1l.07-.08 6.93-6.93z"/><path d="M5.03 19.73a.83.83 0 0 1 .82.72l.01.1v5.7h5.7a.83.83 0 0 1 .83.73v.1a.83.83 0 0 1-.73.83H5.03a.83.83 0 0 1-.82-.72l-.01-.1v-6.53a.83.83 0 0 1 .83-.83zm14.06-.53a.83.83 0 0 1 1.1-.07l.08.07 6.93 6.93a.83.83 0 0 1-1.09 1.25l-.09-.07-6.93-6.93a.83.83 0 0 1 0-1.18z"/><path d="M26.98 19.73a.83.83 0 0 1 .82.72l.01.1v6.54a.83.83 0 0 1-.73.82h-6.63a.83.83 0 0 1-.1-1.65h5.8v-5.7a.83.83 0 0 1 .73-.83h.1z"/></svg><svg viewBox="0 0 32 32" id="facebook"><path d="M16.83 20.42v3.28c.01.22-.05.3-.3.3a78.47 78.47 0 0 0-2.62 0c-.24 0-.3-.07-.3-.28l.01-6.55c0-.27-.07-.35-.36-.34-.65.02-1.3 0-1.94 0-.23.01-.32-.03-.32-.26a62.75 62.75 0 0 0 0-2.3c0-.21.06-.28.29-.28.69.02 1.37 0 2.06.01.22 0 .27-.06.27-.25 0-.79-.04-1.58.01-2.36.09-1.33.66-2.41 2.04-3.02A4.53 4.53 0 0 1 17.42 8c.8-.01 1.58.02 2.36.1.17.02.22.07.22.22v2.14c0 .16-.06.2-.23.2a76.74 76.74 0 0 0-1.58 0c-.9.01-1.35.42-1.36 1.26v1.8c0 .21.05.29.3.28h2.34c.21 0 .26.03.23.24-.12.8-.22 1.59-.32 2.39-.02.15-.11.21-.29.2h-1.94c-.24 0-.33.06-.32.3v3.3"/></svg><svg viewBox="0 0 32 32" id="family"><path fill-rule="evenodd" d="M3.92 18.09a1 1 0 0 1 .9-1.08l23-2A1 1 0 0 1 28 17L5 19a1 1 0 0 1-1.08-.91Z" clip-rule="evenodd"/><path fill-rule="evenodd" d="M6.24 11.35a1 1 0 0 1 1.41-.1l14 12a1 1 0 0 1-1.3 1.5l-14-12a1 1 0 0 1-.1-1.4Z" clip-rule="evenodd"/><path fill-rule="evenodd" d="M12.95 5a1 1 0 0 1 1.05.95l1 21a1 1 0 1 1-2 .1l-1-21A1 1 0 0 1 12.95 5Z" clip-rule="evenodd"/><path fill-rule="evenodd" d="M20.63 8.22a1 1 0 0 1 .15 1.41l-13 16a1 1 0 0 1-1.56-1.26l13-16a1 1 0 0 1 1.41-.15Z" clip-rule="evenodd"/></svg><svg viewBox="0 0 32 32" id="filters"><path d="M19.9 5.9v6.2h2.2v-2h5V7.9h-5v-2h-2.2Zm-1.8 2H4.9v2.2h13.2V7.9Zm-8.2 5v2h-5v2.2h5v2h2.2v-6.2H9.9Zm17.2 2H13.9v2.2h13.2v-2.2Zm-12.07 5v6.2h2.19v-2h9.87v-2.2h-9.87v-2h-2.19Zm-2.4 2H4.95v2.17h7.68V21.9Z"/></svg><svg viewBox="0 0 32 32" id="fullscreen"><path d="M7 7h6a1 1 0 1 0 0-2H6.1C5.5 5 5 5.5 5 6.1V13a1 1 0 1 0 2 0V7Zm18 0v6a1 1 0 1 0 2 0V6.1c0-.6-.5-1.1-1.1-1.1H19a1 1 0 1 0 0 2h6Zm0 18h-6a1 1 0 1 0 0 2h6.9c.6 0 1.1-.5 1.1-1.1V19a1 1 0 1 0-2 0v6ZM7 25v-6a1 1 0 1 0-2 0v6.9c0 .6.5 1.1 1.1 1.1H13a1 1 0 1 0 0-2H7Z"/></svg><svg viewBox="0 0 32 32" id="gift"><path fill-rule="evenodd" d="M9.54 11H6a1 1 0 0 0-1 1v3a1 1 0 0 0 1 1v9c0 1.1.9 2 2 2h16a2 2 0 0 0 2-2v-9a1 1 0 0 0 1-1v-3a1 1 0 0 0-1-1h-3.54A4 4 0 0 0 16 6.35 3.99 3.99 0 0 0 9.54 11ZM19 7a2 2 0 0 0-2 2v2h2a2 2 0 1 0 0-4Zm-4 6H7v1h8v-1Zm-2-2h2V9a2 2 0 1 0-2 2Zm4 2v1h8v-1h-8Zm-2 3H8v9h7v-9Zm2 9h7v-9h-7v9Z" clip-rule="evenodd"/></svg><svg viewBox="0 0 32 32" id="heart"><path fill-rule="evenodd" d="m17.97 22.83.08-.06.25-.22 4-3.88-.02-.02 2.03-1.97a4.13 4.13 0 0 0 0-5.97 4.45 4.45 0 0 0-6.16 0l-2.03 1.97-2-1.95a4.45 4.45 0 0 0-6.17 0 4.13 4.13 0 0 0 0 5.97L14 22.55l.01.02 2.12 2.05 1.85-1.79Zm1.36 1.47.4-.35 5.44-5.28-.02-.02.6-.58a6.06 6.06 0 0 0 0-8.75 6.53 6.53 0 0 0-9.03 0l-.6.57-.57-.56a6.53 6.53 0 0 0-9.03 0 6.06 6.06 0 0 0 0 8.76l6.03 5.86.03.02 2.82 2.74c.4.39 1.04.39 1.44 0l2.49-2.41Z" clip-rule="evenodd"/></svg><svg viewBox="0 0 32 32" id="heart-filled"><path d="m17.97 22.83.08-.06.25-.22 4-3.88-.02-.02 2.03-1.97a4.13 4.13 0 0 0 0-5.97 4.45 4.45 0 0 0-6.16 0l-2.03 1.97-2-1.95a4.45 4.45 0 0 0-6.17 0 4.13 4.13 0 0 0 0 5.97L14 22.55l.01.02 2.12 2.05 1.85-1.79Zm1.36 1.47.4-.35 5.44-5.28-.02-.02.6-.58a6.06 6.06 0 0 0 0-8.75 6.53 6.53 0 0 0-9.03 0l-.6.57-.57-.56a6.53 6.53 0 0 0-9.03 0 6.06 6.06 0 0 0 0 8.76l6.03 5.86.03.02 2.82 2.74c.4.39 1.04.39 1.44 0l2.49-2.41Z"/></svg><svg viewBox="0 0 32 32" id="help"><path fill-rule="evenodd" d="M16 25a9 9 0 1 0 0-18 9 9 0 0 0 0 18Zm0 2a11 11 0 1 0 0-22 11 11 0 0 0 0 22Z" clip-rule="evenodd"/><path d="M16.1 20.14c.5 0 .9.4.9.9v.06a.9.9 0 1 1-1.8 0v-.06c0-.5.4-.9.9-.9Zm.79-1.45a.51.51 0 0 1-.5.49h-.7a.5.5 0 0 1-.5-.5v-.75c0-.83.17-1.1 1.28-2 .86-.72 1.22-1.36 1.22-2.15 0-1.1-.7-1.83-1.73-1.83a1.8 1.8 0 0 0-1.77 1.26l-.12.35c-.16.54-.66.92-1.21.82-.49-.1-.84-.55-.73-1.03A4.1 4.1 0 0 1 16.19 10c2.19 0 3.81 1.57 3.81 3.66 0 .99-.39 1.91-1.08 2.67-.23.22-.3.28-1.5 1.23-.4.3-.5.47-.53 1.13Z"/></svg><svg viewBox="0 0 32 32" id="hidden"><path fill-rule="evenodd" d="M4.3 4.3a1 1 0 0 1 1.4 0l22 22a1 1 0 0 1-1.4 1.4l-2.98-2.96A13.5 13.5 0 0 1 15.94 27c-3.72 0-7.2-1.68-10.03-4.42C3.62 20.35 2 17.59 2 16c0-1.43 1.64-4.21 3.87-6.43.38-.39.78-.75 1.2-1.1L4.28 5.72a1 1 0 0 1 0-1.42Zm14.46 15.87 3.11 3.12A11.41 11.41 0 0 1 15.94 25c-3.1 0-6.1-1.4-8.64-3.86-1.02-1-1.89-2.1-2.48-3.1A5.06 5.06 0 0 1 4 16l.03-.16c.02-.1.06-.25.13-.43.14-.36.35-.8.65-1.3A16.5 16.5 0 0 1 8.48 9.9l3.35 3.34a5 5 0 0 0 6.93 6.93ZM13 16c0-.46.1-.9.3-1.3l4 4A3 3 0 0 1 13 16Zm6.38.88c.57.57 1.53.38 1.6-.43L21 16a5 5 0 0 0-5.45-4.98c-.8.07-1 1.03-.43 1.6l.09.09c.2.2.5.29.79.29a3 3 0 0 1 3 3c0 .3.09.59.3.8l.08.08Zm6.56 5.77a.96.96 0 0 1-1.35-.03 1.05 1.05 0 0 1 .04-1.48 16.62 16.62 0 0 0 2.56-3.23 8.5 8.5 0 0 0 .78-1.75c.03-.1.03-.16.03-.16 0-.18-.17-.85-.83-1.95-.6-1-1.48-2.12-2.52-3.12C22.06 8.41 19.04 7 15.95 7c-1.64 0-3.25.4-4.78 1.15-.41.2-.91.14-1.24-.19-.46-.46-.37-1.24.22-1.54A12.79 12.79 0 0 1 15.95 5c3.72 0 7.22 1.7 10.1 4.5 2.3 2.22 3.95 5 3.95 6.5 0 1.44-1.62 4.22-3.83 6.43l-.23.22Z" clip-rule="evenodd"/></svg><svg viewBox="0 0 32 32" id="horizontal-ellipsis"><path fill-rule="evenodd" d="M8 18a2 2 0 1 1 0-4 2 2 0 0 1 0 4Zm8 0a2 2 0 1 1 0-4 2 2 0 0 1 0 4Zm6-2a2 2 0 1 0 4 0 2 2 0 0 0-4 0Z" clip-rule="evenodd"/></svg><svg viewBox="0 0 32 32" id="info"><path fill-rule="evenodd" d="M16 25a9 9 0 1 0 0-18 9 9 0 0 0 0 18Zm0 2a11 11 0 1 0 0-22 11 11 0 0 0 0 22Z" clip-rule="evenodd"/><path fill-rule="evenodd" d="M16 22a1 1 0 0 1-1-1v-7a1 1 0 1 1 2 0v7a1 1 0 0 1-1 1Z" clip-rule="evenodd"/><path d="M17 11a1 1 0 1 1-2 0 1 1 0 0 1 2 0Z"/></svg><svg viewBox="0 0 32 32" id="instagram"><path d="M15.99 18.67a2.66 2.66 0 1 1 .02-5.33 2.67 2.67 0 0 1-.02 5.33m0-6.77a4.03 4.03 0 0 0-4.1 4.1 4 4 0 0 0 4.08 4.07 4 4 0 0 0 4.11-4.06c0-2.32-1.75-4.1-4.08-4.11m5.2-.14a.93.93 0 0 1-.95.94.99.99 0 0 1-.95-.98c0-.53.42-.93.96-.92.55 0 .94.4.94.97m1.32 3.76v3.3a7.58 7.58 0 0 1-.15 1.32c-.26 1.28-1.06 2.04-2.36 2.26a8.19 8.19 0 0 1-1.38.12H13.2c-.6 0-1.2-.06-1.77-.26a2.66 2.66 0 0 1-1.85-2.2 10.2 10.2 0 0 1-.13-1.9v-5.02a6.63 6.63 0 0 1 .17-1.35c.27-1.26 1.07-1.97 2.31-2.2.46-.08.92-.13 1.39-.13h5.41a6.7 6.7 0 0 1 1.66.2 2.74 2.74 0 0 1 2 2.26c.2 1.35.09 2.7.12 3.6m1.32-3.58a4.12 4.12 0 0 0-2.53-3.48c-.98-.44-2.03-.42-3.07-.44-1.5-.04-3-.04-4.5 0-.73.02-1.47 0-2.2.17a4.13 4.13 0 0 0-3.24 2.95c-.25.78-.24 1.6-.28 2.4-.04.85 0 1.7 0 2.54 0 .83-.03 1.67 0 2.5.02.63.04 1.27.18 1.89a4.1 4.1 0 0 0 3.22 3.28c.85.21 1.71.18 2.57.21 1.27.05 2.53.02 3.8.02.88-.01 1.75-.02 2.61-.2a4.08 4.08 0 0 0 3.11-2.46c.41-.93.44-1.91.45-2.89.01-2.16.13-4.33-.12-6.48"/></svg><svg viewBox="0 0 18 18" id="leaf"><path d="M11.38 5.794C7.497 8.691 2.427 13.037.123 16.79c-.527.856.79 1.712 1.382.856l1.976-2.83C13.093 17.578 16.12 10.007 17.175 0 13.75 3.687-3.105 1.053 2.03 12.773c2.502-2.568 6.65-5.596 9.35-6.98v.001Z"/></svg><svg viewBox="0 0 32 32" id="location"><path d="M18 13a2 2 0 1 1-4 0 2 2 0 0 1 4 0Z"/><path fill-rule="evenodd" d="M15.156 26.692c-2.737-2.41-4.781-4.648-6.131-6.712C7.675 17.915 7 15.986 7 14.192c0-2.802.905-5.035 2.714-6.698C11.524 5.831 13.62 5 16 5s4.477.831 6.286 2.494C24.096 9.157 25 11.39 25 14.192c0 1.794-.675 3.723-2.025 5.788-1.35 2.064-3.394 4.301-6.131 6.712a1.35 1.35 0 0 1-.394.224c-.15.056-.3.084-.45.084-.15 0-.3-.028-.45-.084a1.35 1.35 0 0 1-.394-.224Zm1.18-2.553a.494.494 0 0 1-.672 0c-2.119-1.97-3.703-3.768-4.755-5.392-1.106-1.71-1.659-3.228-1.659-4.555 0-2.036.652-3.704 1.955-5.002C12.508 7.89 14.106 7.242 16 7.242c1.894 0 3.492.65 4.795 1.948s1.955 2.966 1.955 5.002c0 1.327-.553 2.845-1.66 4.554-1.05 1.625-2.635 3.423-4.754 5.393Z" clip-rule="evenodd"/></svg><svg viewBox="0 0 32 32" id="lock"><path d="M18 18a2 2 0 1 1-4 0 2 2 0 0 1 4 0Z"/><path fill-rule="evenodd" d="M16 5a4 4 0 0 0-4 4h-2a6 6 0 0 1 12 0h-2a4 4 0 0 0-4-4Zm8 9H8v13h16V14ZM8 12a2 2 0 0 0-2 2v13c0 1.1.9 2 2 2h16a2 2 0 0 0 2-2V14a2 2 0 0 0-2-2H8Zm2 0V9h2v3h-2Zm10 0V9h2v3h-2Z" clip-rule="evenodd"/><path fill-rule="evenodd" d="M16 18a1 1 0 0 1 1 1v4a1 1 0 1 1-2 0v-4a1 1 0 0 1 1-1Z" clip-rule="evenodd"/></svg><svg viewBox="0 0 32 32" id="log-in"><path d="M14 6a1 1 0 0 1 1-1h7a4 4 0 0 1 4 4v14a4 4 0 0 1-4 4h-7a1 1 0 1 1 0-2h7a2 2 0 0 0 2-2V9a2 2 0 0 0-2-2h-7a1 1 0 0 1-1-1Z"/><path d="M14.3 20.7a1 1 0 0 1 0-1.4l3.29-3.3-3.3-3.3a1 1 0 0 1 1.42-1.4l3.93 3.92a1.1 1.1 0 0 1 0 1.56L15.7 20.7a1 1 0 0 1-1.42 0Z"/><path d="M6 15h12v2H6a1 1 0 1 1 0-2Z"/></svg><svg viewBox="0 0 32 32" id="log-out"><path d="M18 26a1 1 0 0 1-1 1h-7a4 4 0 0 1-4-4V9a4 4 0 0 1 4-4h7a1 1 0 1 1 0 2h-7a2 2 0 0 0-2 2v14c0 1.1.9 2 2 2h7a1 1 0 0 1 1 1Zm3.3-5.3a1 1 0 0 1 0-1.4l3.29-3.3-3.3-3.3a1 1 0 0 1 1.42-1.4l3.93 3.92a1.1 1.1 0 0 1 0 1.56L22.7 20.7a1 1 0 0 1-1.42 0Z"/><path d="M13 15h12v2H13a1 1 0 1 1 0-2Z"/></svg><svg viewBox="0 0 32 32" id="mail"><path fill-rule="evenodd" d="M25 11H7a1 1 0 0 0-1 1v10a1 1 0 0 0 1 1h18a1 1 0 0 0 1-1V12a1 1 0 0 0-1-1ZM7 9a3 3 0 0 0-3 3v10a3 3 0 0 0 3 3h18a3 3 0 0 0 3-3V12a3 3 0 0 0-3-3H7Z" clip-rule="evenodd"/><path fill-rule="evenodd" d="m15.03 17.11-10.5-5.73.95-1.76 10.5 5.73L26 9.63l1 1.74-10.02 5.72a2 2 0 0 1-1.95.02Z" clip-rule="evenodd"/></svg><svg viewBox="0 0 32 32" id="menu"><path d="M5.9 7.9h20.2v2.2H5.9V7.9Zm0 7h20.2v2.2H5.9v-2.2Zm0 7h20.2v2.2H5.9v-2.2Z"/></svg><svg viewBox="0 0 32 32" id="menu-kebab"><path d="M18 24a2 2 0 1 1-4 0 2 2 0 0 1 4 0Zm0-8a2 2 0 1 1-4 0 2 2 0 0 1 4 0Zm0-8a2 2 0 1 1-4 0 2 2 0 0 1 4 0Z"/></svg><svg viewBox="0 0 32 32" id="minimize"><path d="M20 12V6a1 1 0 1 0-2 0v6.9c0 .6.5 1.1 1.1 1.1H26a1 1 0 1 0 0-2h-6Zm-8 0H6a1 1 0 1 0 0 2h6.9c.6 0 1.1-.5 1.1-1.1V6a1 1 0 1 0-2 0v6Zm0 8v6a1 1 0 1 0 2 0v-6.9c0-.6-.5-1.1-1.1-1.1H6a1 1 0 1 0 0 2h6Zm8 0h6a1 1 0 1 0 0-2h-6.9c-.6 0-1.1.5-1.1 1.1V26a1 1 0 1 0 2 0v-6Z"/></svg><svg viewBox="0 0 32 32" id="minus"><path d="M5.9 14.9h20.2v2.2H5.9v-2.2Z"/></svg><svg viewBox="0 0 32 32" id="mute"><path d="M8.27 11.1c-.17.18-.27.42-.27.69v9.07c0 .57.46 1.02 1.02 1.02h5.6l5.63 5.78c.64.66 1.75.2 1.75-.7v-2.13l-2-2v1.7l-4.23-4.34c-.19-.2-.45-.3-.73-.3H10v-7.06L8.27 11.1ZM20 17.17V7.65l-4.2 4.77c-.08.1-.19.19-.3.24l-1.9-1.9h1l5.61-6.38c.62-.7 1.79-.27 1.79.67v14.12l-2-2Z"/><path fill-rule="evenodd" d="M4.3 4.3a1 1 0 0 1 1.4 0l22 22a1 1 0 0 1-1.4 1.4l-22-22a1 1 0 0 1 0-1.4Z" clip-rule="evenodd"/></svg><svg viewBox="0 0 30 30" id="no-subtitles"><path fill-rule="evenodd" d="M3.82 6.93v16.154c0 1.739 1.311 3.087 3.066 3.087h15.709l-1.365-1.558h1.365L6.398 6.93h-.666L4.456 5.474c-.66-.02-.66.051-.643.903.003.157.006.34.006.553Zm1.912 0h-.4v16.154c0 .878.633 1.529 1.554 1.529H21.23L5.732 6.93Z" clip-rule="evenodd"/><path d="M17.908 21.746c0 .43.339.779.756.779L20 22.519l-1.336-1.552-.095.006a.771.771 0 0 0-.66.773Zm-7.626-4.241a.77.77 0 0 1 .756.78.771.771 0 0 1-.662.772l-.094.006H7.76a.768.768 0 0 1-.756-.779c0-.397.288-.724.661-.773l.095-.006h2.52Zm10.558 0a.77.77 0 0 1 .756.78.771.771 0 0 1-.661.772l-.095.006h-.579a.768.768 0 0 1-.756-.779c0-.397.288-.724.661-.773l.095-.006h.579Z"/><path fill="#2A2A2A" d="M12.827 18.284c0 .43.339.78.756.78h3.01L15.62 17.5l-2.038.005-.095.006a.772.772 0 0 0-.66.773Z"/><path d="M15.399 20.967c.417 0 .756.349.756.779a.771.771 0 0 1-.661.773l-.095.006H7.837a.768.768 0 0 1-.756-.78c0-.396.289-.724.661-.772l.095-.006H15.4ZM3.234 4.251a.757.757 0 0 1 1.052-.071l.075.071 20.735 22.286a.903.903 0 0 1 0 1.212.757.757 0 0 1-1.052.071l-.075-.071L3.234 5.463a.903.903 0 0 1 0-1.212Z"/><path fill-rule="evenodd" d="M6.884 4.75A.74.74 0 0 1 7.612 4h14.563c.894 0 1.695.31 2.275.907.58.597.88 1.423.88 2.343v15.5a.74.74 0 0 1-.728.75.74.74 0 0 1-.728-.75V7.25c0-.58-.184-1.004-.454-1.282s-.682-.468-1.245-.468H7.612a.74.74 0 0 1-.728-.75Z" clip-rule="evenodd"/></svg><svg viewBox="0 0 32 32" id="objective"><path fill-rule="evenodd" d="M27 5v6a1 1 0 1 0 2 0V4.1c0-.6-.5-1.1-1.1-1.1H21a1 1 0 1 0 0 2h6ZM5 5h6a1 1 0 1 0 0-2H4.1C3.5 3 3 3.5 3 4.1V11a1 1 0 1 0 2 0V5Zm0 22v-6a1 1 0 1 0-2 0v6.9c0 .6.5 1.1 1.1 1.1H11a1 1 0 1 0 0-2H5Zm22 0h-6a1 1 0 1 0 0 2h6.9c.6 0 1.1-.5 1.1-1.1V21a1 1 0 1 0-2 0v6Zm-4.25-13.37h-1.07c-1.79 0-3.07-1.2-3.73-1.87a1.63 1.63 0 0 0-1.18-.51h-1.54c-.44 0-.85.18-1.18.51-.66.67-1.94 1.87-3.73 1.87H9.25c-.03 0-.08.01-.14.07a.45.45 0 0 0-.11.31v6.36c0 .14.05.25.11.3.06.07.1.08.14.08h13.5c.03 0 .08-.01.14-.07a.45.45 0 0 0 .11-.31V14a.45.45 0 0 0-.11-.3c-.06-.07-.1-.08-.14-.08Zm0-2A2.32 2.32 0 0 1 25 14.01v6.36c0 1.31-1 2.38-2.25 2.38H9.25A2.32 2.32 0 0 1 7 20.37V14c0-1.31 1-2.38 2.25-2.38h1.07c.89 0 1.66-.61 2.3-1.27a3.63 3.63 0 0 1 2.6-1.11h1.55c1.01 0 1.93.42 2.6 1.11.65.66 1.42 1.27 2.31 1.27h1.07Z" clip-rule="evenodd"/><path fill-rule="evenodd" d="M16 17.75a1 1 0 1 0 0-2 1 1 0 0 0 0 2Zm0 2a3 3 0 1 0 0-6 3 3 0 0 0 0 6Z" clip-rule="evenodd"/></svg><svg viewBox="0 0 45 44" id="order"><path d="M6 38.638V5.5h31.763v33.55L31.85 36.3l-4.813 2.338-5.224-2.338-4.675 2.338L12.05 36.3 6 38.638ZM31.85 34.1l3.85 1.788V7.563H8.062v28.05l3.988-1.65 5.087 2.337 4.675-2.337 5.088 2.474 4.95-2.337Z" clip-rule="evenodd"/><path d="M11.088 27.225h20.625V29.7H11.088zm0-11h20.625V18.7H11.088zm0-5.5h12.375V13.2H11.088zm0 11h12.375V24.2H11.088zm15.124 0h5.5V24.2h-5.5z"/></svg><svg viewBox="0 0 32 32" id="pause"><path d="M12 6a1 1 0 0 1 1 1v18a1 1 0 1 1-2 0V7a1 1 0 0 1 1-1Zm8 0a1 1 0 0 1 1 1v18a1 1 0 1 1-2 0V7a1 1 0 0 1 1-1Z"/></svg><svg viewBox="0 0 32 32" id="phone"><path d="M21 23.636H11V8.364h10M21 4H11c-1.11 0-2 .97-2 2.182v19.636c0 .579.21 1.134.586 1.543.375.41.884.639 1.414.639h10c.53 0 1.04-.23 1.414-.639.375-.41.586-.964.586-1.543V6.182C23 4.97 22.1 4 21 4Z"/></svg><svg viewBox="0 0 40 40" id="pinterest"><path d="M10 20.001c.052-2.838 1.054-5.209 3.008-7.109 1.954-1.9 4.284-2.866 6.992-2.892 2.916.052 5.306 1.048 7.168 2.988s2.806 4.279 2.832 7.013c-.052 2.812-1.054 5.177-3.008 7.091C25.038 29.004 22.708 29.974 20 30a9.593 9.593 0 0 1-2.812-.43c.182-.286.364-.612.546-.976.208-.442.468-1.276.782-2.5.078-.338.196-.794.352-1.369.182.313.494.599.938.861 1.172.546 2.408.494 3.71-.156 1.354-.783 2.292-1.993 2.812-3.633.468-1.718.41-3.314-.176-4.784-.586-1.472-1.634-2.533-3.144-3.185-1.9-.546-3.75-.488-5.546.176-1.796.664-3.046 1.805-3.75 3.419a7.961 7.961 0 0 0-.332 1.778c-.04.586-.02 1.158.058 1.718s.274 1.062.586 1.504c.312.442.73.782 1.25 1.016.13.052.234.052.312 0 .104-.052.208-.26.312-.624.104-.364.144-.612.118-.742a4.776 4.776 0 0 0-.156-.274c-.546-.886-.73-1.816-.546-2.792.182-.976.586-1.804 1.21-2.48a5.43 5.43 0 0 1 3.378-1.406c1.288-.078 2.39.274 3.3 1.054.494.572.814 1.262.956 2.07a6.346 6.346 0 0 1 0 2.324 6.99 6.99 0 0 1-.762 2.09c-.652 1.016-1.42 1.536-2.304 1.562-.52-.026-.944-.228-1.27-.606-.326-.378-.424-.814-.292-1.308.052-.286.208-.846.468-1.68s.404-1.458.43-1.874c-.078-.99-.534-1.498-1.368-1.524-.652.078-1.132.372-1.446.878-.314.506-.482 1.088-.508 1.738.078.756.196 1.276.352 1.562a147.94 147.94 0 0 0-.664 2.812c-.052.182-.196.742-.43 1.681-.234.938-.364 1.654-.39 2.148v1.094c-1.848-.86-3.308-2.102-4.374-3.73-1.066-1.629-1.6-3.433-1.6-5.411Z"/></svg><svg viewBox="0 0 32 32" id="play"><path d="M11 7.94v16.12L22.28 16 11 7.94ZM9 6.4a1.2 1.2 0 0 1 1.9-.98l13.45 9.61a1.2 1.2 0 0 1 0 1.96l-13.45 9.6c-.8.58-1.9 0-1.9-.97V6.4Z"/></svg><svg viewBox="0 0 32 32" id="play-2"><path d="M4.2 8.12v15.19c0 2.4 2.54 3.9 4.58 2.7l12.76-7.6a3.15 3.15 0 0 0 0-5.39L8.8 5.43a3.05 3.05 0 0 0-4.59 2.7zM7.9 6.9l12.77 7.6c.9.53.9 1.9 0 2.44L7.9 24.54c-.88.52-2-.15-2-1.23V8.12c0-1.08 1.12-1.74 2-1.22zM26.92 5c.44 0 .8.33.86.76v19.81a.86.86 0 0 1-1.7.1l-.01-.1V5.86c0-.47.38-.86.85-.86z"/></svg><svg viewBox="0 0 32 32" id="plus"><path d="M17.1 5.9v9h9v2.2h-9v9h-2.2v-9h-9v-2.2h9v-9h2.2Z"/></svg><svg viewBox="0 0 32 32" id="privacy-accessibility"><path d="M25.2 10.3c3.1 0 5.6 2.5 5.6 5.6v.1c-.1 3.1-2.5 5.5-5.6 5.5h-3.7c-1.7 0-3.3-.8-4.3-2.1 1.5-.5 2.6-2 2.6-3.6 0-1.7-1.1-3.1-2.6-3.6 1.1-1.3 2.6-2.1 4.3-2.1h3.7zm.9 7.1h-5s-.1 0-.1.1v1.9s0 .1.1.1h5s.1 0 .1-.1l-.1-2c.1.1.1 0 0 0zM22 18.5v.5s0 .1-.1.1h-.5s-.1 0-.1-.1v-.5s0-.1.1-.1h.6zm2.8 0s.1 0 0 0l.1.6s0 .1-.1.1h-.5s-.1 0-.1-.1v-.5s0-.1.1-.1h.5zm-1.9 0c.1 0 .1 0 0 0l.1.5s0 .1-.1.1h-.5s-.1 0-.1-.1v-.5s0-.1.1-.1h.5zm2.9 0 .1.6s0 .1-.1.1h-.5s-.1 0-.1-.1v-.5s0-.1.1-.1h.5zm-1.9 0 .1.6s0 .1-.1.1h-.6v-.5s0-.1.1-.1h.5zm-.5-.8c.1 0 .1 0 0 0l.1.6s0 .1-.1.1h-.5s-.1 0-.1-.1v-.5s0-.1.1-.1h.5zm-.9 0 .1.6s0 .1-.1.1h-.6v-.5s0-.1.1-.1h.5zm1.9 0 .1.6s0 .1-.1.1h-.5s-.1 0-.1-.1v-.5s0-.1.1-.1h.5zm.9 0s.1 0 0 0l.1.6s0 .1-.1.1h-.5s-.1 0-.1-.1v-.5s0-.1.1-.1h.5zm.7-5.2h-4.8v4.8H26v-4.8c.1 0 .1 0 0 0zm-.6.7s.1 0 0 0v3.1h-3.6v-3.1h3.6zm-15.1-2.9c1.8 0 3.3.8 4.4 2.1-1.5.6-2.4 2-2.4 3.5 0 1.6 1 3 2.4 3.5-1.1 1.3-2.7 2.1-4.4 2.1H6.6C3.5 21.6 1 19.1 1 16v-.1c.1-3.1 2.5-5.5 5.6-5.5h3.7zm-4.1 4.6H6c-.7.4-1.2 1-1.3 1.8 0 .4 0 .8.1 1.1.3 1.2 1.6 1.9 2.9 1.6.7-.2 1.3-.8 1.6-1.6v-.2c0-.2-.2-.3-.4-.2-.1 0-.2.1-.2.2-.2.5-.6.9-1.1 1.1-.2.1-.5.1-.7.1-.3-.1-.7-.2-.9-.4l-.1-.1c-.3-.4-.4-.9-.4-1.3.1-.5.4-1 .9-1.3.1 0 .2-.1.2-.3 0-.3-.2-.5-.4-.5zm1.2-1c-.2 0-.4.1-.4.4v2.4c0 .2.2.4.4.4h2.2l.9 1.4c0 .1.1.1.2.1h.2l.7-.4c.1-.1.2-.2.1-.3-.1-.1-.2-.2-.3-.1l-.5.2-1-1.5c0-.1-.1-.2-.3-.2H7.8v-.6h1.3c.2 0 .3-.2.3-.4s-.1-.4-.3-.4H7.8v-.8c0-.1-.2-.2-.4-.2zm0-1.5c-.3 0-.6.3-.6.6s.3.6.6.6.6-.3.6-.6-.3-.6-.6-.6z" class="cust0"/><path d="M18 15.3v.2c0 .6-.1 1.1-.7 1.5l-.5.3-2.3 1.2v-.2c0-.5.1-1.1.6-1.4l1.1-.6.7-.4.1-.1c-.1.1 1-.5 1-.5zm-3.6-1.8 3.3 1.7-1.2.6-1.5-.7c-.5-.3-.6-.8-.6-1.3v-.3z" class="cust0"/><path d="M29.4 21.6v-.7h-.2v-.1h.6v.1h-.2v.7h-.2zm.5 0v-.8h.2l.1.5.1-.5h.2v.8h-.1V21l-.2.6h-.1V21v.6h-.2z"/></svg><svg fill="none" viewBox="0 0 32 32" id="privacy-options"><path fill="#2A2A2A" d="M13.8 13.9c.2-.2.1-.6-.1-.8-.3-.2-.7-.2-.9 0L9 17.6l-1.8-1.7c-.2-.2-.6-.2-.8 0-.2.2-.2.6 0 .8l2.2 2.2c.2.2.5.2.7.1.1 0 .2-.1.3-.2l4.2-4.9Z"/><path fill="#2A2A2A" fill-rule="evenodd" d="M8.4 9h15.2c3.8 0 7 3.1 7 7s-3.1 7-7 7H8.4c-3.9 0-7-3.1-7-7s3.1-7 7-7Zm-.593 12.77A5.805 5.805 0 0 1 2.6 16c0-3.2 2.6-5.8 5.8-5.8h9.9l-3.1 11.6H8.4c-.2 0-.398-.01-.593-.03ZM25.6 13c.2.2.2.6 0 .8L23.5 16l2.2 2.2c.2.2.2.6 0 .8-.2.2-.6.2-.8 0l-2.2-2.2-2.2 2.2c-.2.2-.6.2-.8 0-.2-.2-.2-.6 0-.8l2.1-2.2-2.2-2.2c-.2-.2-.2-.6 0-.8.2-.2.6-.2.8 0l2.2 2.2 2.2-2.2c.2-.2.6-.2.8 0Z" clip-rule="evenodd"/></svg><svg fill="none" viewBox="0 0 34 34" id="question"><mask id="a" width="34" height="34" x="0" y="0" maskUnits="userSpaceOnUse" style="mask-type:alpha"><path fill="#fff" fill-rule="evenodd" d="M.5.5h32.625v32.625H.5V.5Z" clip-rule="evenodd"/></mask><g fill="#2A2A2A" fill-rule="evenodd" clip-rule="evenodd" mask="url(#a)"><path d="M16.813 30.869c-7.764 0-14.057-6.294-14.057-14.057 0-7.763 6.293-14.056 14.057-14.056 7.763 0 14.056 6.293 14.056 14.056 0 7.763-6.293 14.057-14.056 14.057Zm0-30.37C7.803.5.5 7.803.5 16.812c0 9.01 7.304 16.313 16.313 16.313 9.009 0 16.313-7.304 16.313-16.313C33.126 7.803 25.822.5 16.813.5Z"/><path d="m13.885 14.48-2.624-.471s.008-3.999 4.101-5.323c0 0 3.858-1.209 6.313 1.987 0 0 2.417 3.43-1.169 6.47l-1.645 1.25s-.732.347-.732 1.127l-.035 1h-2.352l.013-1.758s-.068-.865.545-1.462l.513-.483s1.51-1.109 1.797-1.61c0 0 1.251-1.36.23-3.188 0 0-.853-1.433-2.973-.839 0 0-1.676.335-1.982 3.3Z"/></g><mask id="b" width="34" height="34" x="0" y="0" maskUnits="userSpaceOnUse" style="mask-type:alpha"><path fill="#fff" fill-rule="evenodd" d="M.5 33.125h32.625V.5H.5v32.625Z" clip-rule="evenodd"/></mask><g mask="url(#b)"><path fill="#2A2A2A" fill-rule="evenodd" d="M15.742 25.25h2.848v-3.02h-2.848v3.02Z" clip-rule="evenodd"/></g></svg><svg viewBox="0 0 32 32" id="refresh"><path fill-rule="evenodd" d="M7 16a1 1 0 0 1-1-1 10 10 0 0 1 20 0h-2a8 8 0 1 0-16 0 1 1 0 0 1-1 1Z" clip-rule="evenodd"/><path fill-rule="evenodd" d="M25 14a1 1 0 0 1 1 1 10 10 0 0 1-10 10v-2a8 8 0 0 0 8-8 1 1 0 0 1 1-1Z" clip-rule="evenodd"/><path fill-rule="evenodd" d="M16.7 19.3a1 1 0 0 1 0 1.4L13.42 24l3.3 3.3a1 1 0 0 1-1.42 1.4l-3.93-3.92a1.1 1.1 0 0 1 0-1.56l3.93-3.93a1 1 0 0 1 1.42 0Z" clip-rule="evenodd"/><path d="M13 23h3v2h-3v-2Z"/></svg><svg viewBox="0 0 32 32" id="rewind"><path d="M3 11.13v9.4a2.08 2.08 0 0 0 3.13 1.83l7.86-4.7A2.15 2.15 0 0 0 14 14L6.14 9.3C4.73 8.47 3 9.5 3 11.14zm2.38-.58 7.86 4.7a.7.7 0 0 1 0 1.16l-7.86 4.7c-.4.24-.92-.07-.92-.59v-9.39c0-.51.52-.82.92-.58zm11.43.58v9.4a2.08 2.08 0 0 0 3.14 1.83l7.86-4.7a2.15 2.15 0 0 0 0-3.67l-7.86-4.7c-1.4-.83-3.14.2-3.14 1.84zm2.39-.58 7.86 4.7a.7.7 0 0 1 0 1.16l-7.86 4.7c-.41.24-.92-.07-.92-.59v-9.39c0-.51.51-.82.91-.58z"/></svg><svg viewBox="0 0 32 32" id="search"><path d="M19 17.59 26.41 25 25 26.41 17.59 19 19 17.59Z"/><path fill-rule="evenodd" d="M14 20a6 6 0 1 0 0-12 6 6 0 0 0 0 12Zm0 2a8 8 0 1 0 0-16 8 8 0 0 0 0 16Z"/></svg><svg version="1.2" viewBox="0 0 32 32" id="share"><path d="M16 20.3c.6 0 1-.5 1-1V6.6l-.1-1.9.9.9 1.8 2c.2.2.5.3.7.3.5 0 .9-.4.9-.9q0-.4-.3-.6l-4.2-4.1c-.2-.2-.4-.3-.7-.3-.2 0-.4.1-.7.3l-4.2 4.1q-.3.2-.3.6c0 .5.4.9.9.9.2 0 .5-.1.7-.3l1.9-2 .8-.9-.1 1.9v12.7c0 .5.5 1 1 1zM8.9 30h14.2q3.9 0 3.9-3.8V13.8q0-3.9-3.9-3.9h-3.4v2h3.4c1.2 0 1.9.7 1.9 2v12.2c0 1.2-.7 1.9-1.9 1.9H8.9C7.7 28 7 27.3 7 26.1V13.9c0-1.3.7-2 1.9-2h3.5v-2H8.9Q5 9.9 5 13.8v12.4Q5 30 8.9 30z"/></svg><svg viewBox="0 0 32 32" id="shipping"><path fill-rule="evenodd" d="M19 11H5v12h14V11ZM5 9a2 2 0 0 0-2 2v12c0 1.1.9 2 2 2h16V11a2 2 0 0 0-2-2H5Z" clip-rule="evenodd"/><path d="M11 24.5a2.5 2.5 0 1 1-5 0 2.5 2.5 0 0 1 5 0Zm15 0a2.5 2.5 0 1 1-5 0 2.5 2.5 0 0 1 5 0Z"/><path fill-rule="evenodd" d="M19 15c0-1.1.9-2 2-2h2.71a2 2 0 0 1 1.48.65l4.29 4.72a2 2 0 0 1 .52 1.35V23a2 2 0 0 1-2 2h-7a2 2 0 0 1-2-2v-8Zm4.71 0H21v8h7v-3.28L23.71 15Z" clip-rule="evenodd"/></svg><svg viewBox="0 0 32 32" id="size"><path fill-rule="evenodd" d="M27 11H5a1 1 0 0 0-1 1v8a1 1 0 0 0 1 1h22a1 1 0 0 0 1-1v-8a1 1 0 0 0-1-1ZM5 9a3 3 0 0 0-3 3v8a3 3 0 0 0 3 3h22a3 3 0 0 0 3-3v-8a3 3 0 0 0-3-3H5Z" clip-rule="evenodd"/><path fill-rule="evenodd" d="M23 10a1 1 0 0 1 1 1v4a1 1 0 1 1-2 0v-4a1 1 0 0 1 1-1Zm-7 0a1 1 0 0 1 1 1v4a1 1 0 1 1-2 0v-4a1 1 0 0 1 1-1Zm-7 0a1 1 0 0 1 1 1v4a1 1 0 1 1-2 0v-4a1 1 0 0 1 1-1Z" clip-rule="evenodd"/></svg><svg viewBox="0 0 24 24" id="spinner"><path d="M12 3a9 9 0 0 1 9 9h-2a7 7 0 0 0-7-7V3z"/></svg><svg viewBox="0 0 32 32" id="square"><rect x="6" y="6" width="20" height="20" rx="1"/></svg><svg viewBox="0 0 32 32" id="square-4"><path d="M7 6h6.8a1 1 0 0 1 1 1v6.8a1 1 0 0 1-1 1H7a1 1 0 0 1-1-1V7a1 1 0 0 1 1-1zm0 11.2h6.8a1 1 0 0 1 1 1V25a1 1 0 0 1-1 1H7a1 1 0 0 1-1-1v-6.8a1 1 0 0 1 1-1zM18.2 6H25a1 1 0 0 1 1 1v6.8a1 1 0 0 1-1 1h-6.8a1 1 0 0 1-1-1V7a1 1 0 0 1 1-1zm0 11.2H25a1 1 0 0 1 1 1V25a1 1 0 0 1-1 1h-6.8a1 1 0 0 1-1-1v-6.8a1 1 0 0 1 1-1z"/></svg><svg viewBox="0 0 32 32" id="square-6"><path d="M14.2 6h3.6a1 1 0 0 1 1 1v3.6a1 1 0 0 1-1 1h-3.6a1 1 0 0 1-1-1V7a1 1 0 0 1 1-1zm7.2 0H25a1 1 0 0 1 1 1v3.6a1 1 0 0 1-1 1h-3.6a1 1 0 0 1-1-1V7a1 1 0 0 1 1-1zM7 6h3.6a1 1 0 0 1 1 1v3.6a1 1 0 0 1-1 1H7a1 1 0 0 1-1-1V7a1 1 0 0 1 1-1zm7.2 7.2h3.6a1 1 0 0 1 1 1v3.6a1 1 0 0 1-1 1h-3.6a1 1 0 0 1-1-1v-3.6a1 1 0 0 1 1-1zm7.2 0H25a1 1 0 0 1 1 1v3.6a1 1 0 0 1-1 1h-3.6a1 1 0 0 1-1-1v-3.6a1 1 0 0 1 1-1zM7 13.2h3.6a1 1 0 0 1 1 1v3.6a1 1 0 0 1-1 1H7a1 1 0 0 1-1-1v-3.6a1 1 0 0 1 1-1zm7.2 7.2h3.6a1 1 0 0 1 1 1V25a1 1 0 0 1-1 1h-3.6a1 1 0 0 1-1-1v-3.6a1 1 0 0 1 1-1zm7.2 0H25a1 1 0 0 1 1 1V25a1 1 0 0 1-1 1h-3.6a1 1 0 0 1-1-1v-3.6a1 1 0 0 1 1-1zM7 20.4h3.6a1 1 0 0 1 1 1V25a1 1 0 0 1-1 1H7a1 1 0 0 1-1-1v-3.6a1 1 0 0 1 1-1z"/></svg><svg viewBox="0 0 32 32" id="star"><path d="m11.35 10.61-6.06.51-.23.03a2.5 2.5 0 0 0-1.2 4.35l4.6 4-1.37 5.93-.04.22a2.5 2.5 0 0 0 3.77 2.48L16 25l5.18 3.14.2.11c1.85.92 4.01-.73 3.53-2.81l-1.38-5.94 4.6-3.99.17-.16a2.5 2.5 0 0 0-1.6-4.22l-6.05-.5-2.35-5.6a2.5 2.5 0 0 0-4.6 0l-2.35 5.6Zm5.33-4.9 2.56 6.08c.13.3.41.5.74.53l6.58.55c.65.06.92.87.42 1.3l-5 4.34a.88.88 0 0 0-.28.86l1.5 6.46a.74.74 0 0 1-1.1.8l-5.65-3.43a.88.88 0 0 0-.9 0L9.9 26.63a.74.74 0 0 1-1.1-.8l1.49-6.46a.88.88 0 0 0-.28-.86l-5-4.34a.74.74 0 0 1 .42-1.3l6.58-.55c.33-.02.61-.23.74-.53l2.56-6.08a.74.74 0 0 1 1.36 0Z"/></svg><svg viewBox="0 0 32 32" id="star-filled"><path fill-rule="evenodd" d="M15.29 4.23a.75.75 0 0 1 1.42 0l2.43 7.56c.1.31.39.52.71.52h7.87c.72 0 1.03.93.44 1.36l-6.38 4.7a.75.75 0 0 0-.27.83l2.43 7.6a.75.75 0 0 1-1.15.82l-6.35-4.67a.75.75 0 0 0-.88 0L9.2 27.62a.75.75 0 0 1-1.15-.83l2.43-7.59a.75.75 0 0 0-.27-.83l-6.38-4.7a.75.75 0 0 1 .44-1.36h7.87c.32 0 .61-.2.71-.52l2.43-7.56Z" clip-rule="evenodd"/></svg><svg viewBox="0 0 32 32" id="store"><path fill-rule="evenodd" d="M24 10H8a1 1 0 0 0-1 1v15a1 1 0 0 0 1 1h16a1 1 0 0 0 1-1V11a1 1 0 0 0-1-1ZM8 8a3 3 0 0 0-3 3v15a3 3 0 0 0 3 3h16a3 3 0 0 0 3-3V11a3 3 0 0 0-3-3H8Zm8-2a2 2 0 0 0-2 2h-2a4 4 0 0 1 8 0h-2a2 2 0 0 0-2-2Z" clip-rule="evenodd"/><path fill-rule="evenodd" d="M12 18v9h8v-9h-8Zm-1-2a1 1 0 0 0-1 1v11a1 1 0 0 0 1 1h10a1 1 0 0 0 1-1V17a1 1 0 0 0-1-1H11Z" clip-rule="evenodd"/><path fill-rule="evenodd" d="M15 28V18h2v10h-2Z" clip-rule="evenodd"/></svg><svg viewBox="0 0 32 32" id="subtitles"><path d="M24.73 4.1H7.47C5.43 4.1 4.1 5.49 4.1 7.4v17.22c0 1.86 1.44 3.3 3.37 3.3h17.26c2.13 0 3.18-1.3 3.18-3.3V7.4c0-1.95-1.12-3.29-3.18-3.29zM7.47 5.76h17.26c1.07 0 1.52.54 1.52 1.63v17.23c0 1.15-.39 1.63-1.52 1.63H7.47c-1.01 0-1.7-.7-1.7-1.63V7.4c0-1 .6-1.63 1.7-1.63z"/><path d="M23.18 22.36a.83.83 0 0 1 .1 1.66h-2.87a.83.83 0 0 1-.1-1.65h2.87zM11.2 18.67a.83.83 0 0 1 .1 1.66H8.43a.83.83 0 0 1-.1-1.65h2.87zm11.94 0a.83.83 0 0 1 .1 1.66h-8.41a.83.83 0 0 1-.1-1.65h8.4zm-6.32 3.7a.83.83 0 0 1 .1 1.65h-8.4a.83.83 0 0 1-.11-1.65h8.41z"/></svg><svg viewBox="0 0 32 32" id="success"><path fill="#457030" fill-rule="evenodd" d="M20.94 7.65c.5-.45.44-1.27-.17-1.57A11 11 0 1 0 26.96 15c-.08-.8-1.02-1.1-1.61-.56-.27.24-.4.59-.37.94a9 9 0 1 1-5.25-7.57c.4.18.88.13 1.21-.16Z" clip-rule="evenodd"/><path fill="#457030" fill-rule="evenodd" d="M27.2 7.3a1 1 0 0 1 0 1.4L16.24 19.68a1.1 1.1 0 0 1-1.6-.05l-3.35-3.79a1 1 0 0 1 1.5-1.32l2.71 3.07L25.8 7.3a1 1 0 0 1 1.42 0Z" clip-rule="evenodd"/></svg><svg viewBox="0 0 32 32" id="thumbs-up"><path fill-rule="evenodd" d="m19.18 7.43.03-.32c0-.41-.18-.79-.47-1.06l-.44-.41a1 1 0 0 0-1.36 0l-6.31 5.95a1.97 1.97 0 0 0-.5.73c-.09.21-.13.44-.13.68v10c0 .24.04.46.13.67.3.77 1.08 1.33 2 1.33h9.56c.88 0 1.63-.5 1.95-1.22l3.21-7.05c.1-.23.15-.47.15-.73v-2c0-1.1-.96-2-2.13-2h-6.39a.25.25 0 0 1-.24-.3l.94-4.27ZM12.13 13v10h8.91a1 1 0 0 0 .91-.59l2.9-6.36a.25.25 0 0 0 .02-.1V15a1 1 0 0 0-1-1H16.8a1 1 0 0 1-.97-1.22l.73-3.33a.25.25 0 0 0-.41-.23L12.13 13Z" clip-rule="evenodd"/><path d="M6 12.5c0-.28.22-.5.5-.5h1c.28 0 .5.22.5.5v12a.5.5 0 0 1-.5.5h-1a.5.5 0 0 1-.5-.5v-12Z"/></svg><svg viewBox="0 0 32 32" id="tiktok"><path d="M22.858 11.874v2.758a7.248 7.248 0 0 1-3.819-1.546v5.574l-.01-.018A5.027 5.027 0 0 1 14.02 24 5.027 5.027 0 0 1 9 18.979a5.027 5.027 0 0 1 5.817-4.959v2.718a2.38 2.38 0 0 0-3.174 2.241 2.38 2.38 0 0 0 2.377 2.378 2.381 2.381 0 0 0 2.373-2.526V8h2.755l.03.702c.018.46.182.9.467 1.262.335.424.829.918 1.522 1.311.65.368 1.26.527 1.691.601v-.002Z"/></svg><svg viewBox="0 0 32 32" id="trash"><path fill-rule="evenodd" d="M13.83 6.68a1 1 0 0 1 .94-.68h2.46a1 1 0 0 1 .94.68L18.61 8H13.4l.44-1.32ZM11.98 10a.9.9 0 0 0 .04 0h7.96a.9.9 0 0 0 .04 0h2.9l-1.34 15.5H10.9L9.12 10h2.86Zm-.7-2 .65-1.95A3 3 0 0 1 14.77 4h2.46a3 3 0 0 1 2.84 2.05L20.72 8h4.78a1 1 0 1 1 0 2h-.58l-1.35 15.67a2 2 0 0 1-1.99 1.83H10.9a2 2 0 0 1-1.98-1.77L7.1 10h-.6a1 1 0 0 1 0-2h4.78ZM14 15a1 1 0 0 1 1 1v6.5a1 1 0 1 1-2 0V16a1 1 0 0 1 1-1Zm5 1a1 1 0 1 0-2 0v6.5a1 1 0 1 0 2 0V16Z" clip-rule="evenodd"/></svg><svg fill="none" viewBox="0 0 24 24" id="try-it-on"><path d="M20.25 3.75v4.5a.75.75 0 0 0 1.5 0V3.075a.825.825 0 0 0-.825-.825H15.75a.75.75 0 0 0 0 1.5h4.5Zm-16.5 0h4.5a.75.75 0 0 0 0-1.5H3.075a.825.825 0 0 0-.825.825V8.25a.75.75 0 0 0 1.5 0v-4.5Zm0 16.5v-4.5a.75.75 0 0 0-1.5 0v5.175c0 .456.37.825.825.825H8.25a.75.75 0 0 0 0-1.5h-4.5Zm16.5 0h-4.5a.75.75 0 0 0 0 1.5h5.175c.456 0 .825-.37.825-.825V15.75a.75.75 0 0 0-1.5 0v4.5ZM7.812 9.321l3.974 1.987 3.975-1.987-3.974-1.987L7.812 9.32Zm3.333 3.101-3.85-1.925v4.473l3.85 1.994v-4.542Zm1.283 4.542 3.85-1.994v-4.473l-3.85 1.925v4.542ZM17.1 8.556a.85.85 0 0 1 .461.908v5.702a.85.85 0 0 1-.461.909l-4.931 2.465a.855.855 0 0 1-.765 0l-4.931-2.465a.85.85 0 0 1-.46-.91v-5.7a.85.85 0 0 1 .46-.91l4.93-2.466a.86.86 0 0 1 .766 0L17.1 8.556Z" fill="#1C1C1C" fill-rule="evenodd" clip-rule="evenodd"/></svg><svg viewBox="0 0 32 32" id="visible"><path fill-rule="evenodd" d="M7.28 10.99C9.85 8.43 12.84 7 15.94 7c3.1 0 6.12 1.41 8.71 3.93a16.2 16.2 0 0 1 2.52 3.12A5.1 5.1 0 0 1 28 16l-.03.16c-.02.11-.06.26-.13.44-.14.36-.35.8-.65 1.3-.59 1-1.44 2.12-2.44 3.11-2.55 2.55-5.59 3.99-8.8 3.99-3.1 0-6.1-1.4-8.65-3.86-1.02-1-1.89-2.1-2.48-3.1A5.06 5.06 0 0 1 4 16l.03-.16c.02-.1.06-.25.13-.43.14-.36.35-.8.65-1.3.6-1 1.47-2.13 2.47-3.12ZM15.94 5C12.2 5 8.72 6.73 5.87 9.57 3.64 11.79 2 14.57 2 16c0 1.59 1.62 4.35 3.9 6.58C8.75 25.32 12.23 27 15.95 27c3.86 0 7.37-1.73 10.23-4.57 2.21-2.21 3.83-5 3.83-6.43 0-1.5-1.66-4.28-3.95-6.5C23.17 6.7 19.67 5 15.95 5ZM19 16a3 3 0 1 1-6 0 3 3 0 0 1 6 0Zm2 0a5 5 0 1 1-10 0 5 5 0 0 1 10 0Z"/></svg><svg viewBox="0 0 32 32" id="vol-lg"><path fill-rule="evenodd" d="M17 5.05c0-.94-1.17-1.38-1.79-.67L9.6 10.77H4.02c-.56 0-1.02.46-1.02 1.02v9.07c0 .57.46 1.02 1.02 1.02h5.6l5.63 5.78c.64.66 1.75.2 1.75-.7V5.05Zm-6.2 7.37L15 7.65v16.89l-4.23-4.35c-.19-.2-.45-.3-.73-.3H5v-7.12h5.04c.3 0 .57-.13.77-.35Z" clip-rule="evenodd"/><path d="M20.1 12.05a.74.74 0 1 0-.53 1.38 2.7 2.7 0 0 1-.07 5.06.74.74 0 0 0 .48 1.4 4.17 4.17 0 0 0 .12-7.84Z"/><path d="M20.24 9.62a.73.73 0 0 1 .93-.42 7.33 7.33 0 0 1-.2 13.78.73.73 0 0 1-.48-1.36 5.88 5.88 0 0 0 .17-11.06.73.73 0 0 1-.42-.94Z"/><path d="M22.28 6.05a.73.73 0 0 0-.52 1.37 9.22 9.22 0 0 1-.26 17.33.73.73 0 0 0 .47 1.38 10.69 10.69 0 0 0 .3-20.08Z"/></svg><svg viewBox="0 0 32 32" id="vol-md"><path fill-rule="evenodd" d="m17 7.65-4.2 4.77c-.19.22-.46.35-.76.35H7v7.11h5.04c.28 0 .54.11.73.31L17 24.54V7.65Zm.21-3.27c.62-.7 1.79-.27 1.79.67v21.9c0 .92-1.11 1.37-1.75.71l-5.62-5.78H6.02c-.56 0-1.02-.45-1.02-1.02V11.8c0-.56.46-1.02 1.02-1.02h5.58l5.61-6.39Z" clip-rule="evenodd"/><path d="M21.15 12.48a.74.74 0 0 1 .95-.43 4.17 4.17 0 0 1-.12 7.84.74.74 0 0 1-.48-1.4 2.7 2.7 0 0 0 .07-5.06.74.74 0 0 1-.42-.95Z"/><path d="M22.24 9.62a.73.73 0 0 1 .93-.42 7.33 7.33 0 0 1-.2 13.78.73.73 0 0 1-.48-1.36 5.88 5.88 0 0 0 .17-11.06.73.73 0 0 1-.42-.94Z"/></svg><svg viewBox="0 0 32 32" id="vol-sm"><path fill-rule="evenodd" d="m17 7.65-4.2 4.77c-.19.22-.46.35-.76.35H7v7.11h5.04c.28 0 .54.11.73.31L17 24.54V7.65Zm.21-3.27c.62-.7 1.79-.27 1.79.67v21.9c0 .92-1.11 1.37-1.75.71l-5.62-5.78H6.02c-.56 0-1.02-.45-1.02-1.02V11.8c0-.56.46-1.02 1.02-1.02h5.58l5.61-6.39Z" clip-rule="evenodd"/><path d="M22.15 12.48a.74.74 0 0 1 .95-.43 4.17 4.17 0 0 1-.12 7.84.74.74 0 0 1-.48-1.4 2.7 2.7 0 0 0 .07-5.06.74.74 0 0 1-.42-.95Z"/></svg><svg fill="none" viewBox="0 0 32 32" id="x"><path fill="#000" d="M20.6 8.25h2.454l-5.36 6.126L24 22.712h-4.937l-3.867-5.055-4.425 5.055H8.316l5.733-6.552L8 8.25h5.063l3.495 4.621 4.043-4.621Zm-.86 12.994h1.36L12.323 9.641h-1.459l8.875 11.603Z"/></svg><svg viewBox="0 0 32 32" id="youtube"><path d="M15.09 18.38c-.28.16-.3.15-.3-.16v-4.44c0-.08-.02-.16.05-.26l1.48.83 2.64 1.52c.06.03.18.05.18.14.01.1-.1.1-.17.15l-3.88 2.22Zm9.67-6.04c-.2-1.15-.79-1.8-1.84-2.03a6.88 6.88 0 0 0-1.03-.13 72.13 72.13 0 0 0-11.29.05c-1.28.12-2.1.73-2.32 2.04a24.86 24.86 0 0 0-.28 3.7c0 .48.03.96.05 1.44.03.78.09 1.56.23 2.34.21 1.19.84 1.78 2.05 1.97.92.15 1.84.18 2.75.2 1.23.04 2.45.1 3.72.07.95.04 1.95-.03 2.94-.05 1.02-.03 2.02-.1 3.03-.22.99-.13 1.7-.75 1.9-1.67.14-.56.2-1.13.25-1.7.1-1.18.08-2.37.06-3.56-.02-.83-.08-1.64-.22-2.45Z"/></svg></svg>